<?xml version="1.0" encoding="utf-8"?>
<!-- Generator: Adobe Illustrator 26.0.3, SVG Export Plug-In . SVG Version: 6.00 Build 0)  -->
<svg version="1.0"
	 id="svg48" xmlns:inkscape="http://www.inkscape.org/namespaces/inkscape" xmlns:sodipodi="http://sodipodi.sourceforge.net/DTD/sodipodi-0.dtd" xmlns:svg="http://www.w3.org/2000/svg"
	 xmlns="http://www.w3.org/2000/svg" xmlns:xlink="http://www.w3.org/1999/xlink" x="0px" y="0px" viewBox="0 0 1100.9 846.3"
	 style="enable-background:new 0 0 1100.9 846.3;" xml:space="preserve">
<g id="g46" transform="translate(-8,-306)">
	<g id="g18" transform="matrix(0.857143,0,0,0.857143,8,306)">
		<path id="path16" vector-effect="none" d="M147.2,430.4h27.3V574h75.7v25.3h-103V430.4 M277.3,430.4c9.4,0,17.1,7.2,17.1,16.5
			c0,9.5-7.7,17-17.1,17c-9.5,0-17.1-7.5-17.1-17C260.2,437.7,267.8,430.4,277.3,430.4 M263.9,477.5h26.3v121.7h-26.3V477.5
			 M305.6,477.5h26.3v16.8c7.7-12.8,21.1-20.1,38.7-20.1c28.5,0,46.3,22.2,46.3,57.3v67.6h-26.3V534c0-22.7-9.9-35.6-28.1-35.6
			c-19.7,0-30.7,13.4-30.7,37.8v63.1h-26.3V477.5 M430.8,430.4H457v106.8l49-59.5h33l-52.3,60.9l52.3,60.7h-33l-49-59.4v59.4h-26.3
			V430.4 M549.2,446.5h26.7v31h31.2v21.7h-31.2v62.6c0,8,4.9,12.8,12.5,12.8h17.5v24.5h-21.1c-22.9,0-35.6-13.4-35.6-37.4V446.5
			 M620.6,477.5H645v15.1c6.5-11.5,17.4-18.3,30.7-18.3c4,0,6.2,0.1,9.2,1.2v24.4c-1.8-0.4-4.5-0.9-9.8-0.9c-19.3,0-30,16.1-30,44
			v56.3h-26.3V477.5H620.6 M746.2,474.3c28.9,0,60.3,17.4,60.3,66.9v3.5h-94.1c2.1,21.7,14.7,33.7,35.8,33.7
			c15.1,0,28.1-8.1,30.9-19.5h26.7c-2.7,24.4-28.1,43.6-57.6,43.6c-37.9,0-61.6-24.5-61.6-64.2C686.5,503.1,709.5,474.3,746.2,474.3
			 M778.6,523c-3.7-15.1-15.6-24.5-32.2-24.5c-16,0-27.3,9.7-31.8,24.5H778.6 M877.9,474.3c28.9,0,60.3,17.4,60.3,66.9v3.5H844
			c2.1,21.7,14.7,33.7,35.8,33.7c15.1,0,28.1-8.1,30.9-19.5h26.7c-2.7,24.4-28.1,43.6-57.6,43.6c-37.9,0-61.6-24.5-61.6-64.2
			C818.2,503.1,841.1,474.3,877.9,474.3 M910.1,523c-3.7-15.1-15.6-24.5-32.4-24.5c-16,0-27.3,9.7-31.8,24.5H910.1 M944.7,473.8
			h46.9l-33.4-31.6l18.4-18.8l31.8,32.5v-46.2h27.6V456l31.8-32.5l18.4,18.8l-33.4,31.6h46.9V500h-47.2l33.6,32.5l-18.4,18.3
			l-45.6-45.6l-45.6,45.6L958,532.5l33.5-32.5h-47.2v-26.1H944.7 M1008.5,537.3h27.6v62h-27.6V537.3"/>
	</g>
</g>
</svg>
